<?xml version="1.0" encoding="UTF-8" standalone="no"?>
<svg width="180px" height="59px" viewBox="0 0 180 59" version="1.1" xmlns="http://www.w3.org/2000/svg" xmlns:xlink="http://www.w3.org/1999/xlink">
    <!-- Generator: Sketch 39.1 (31720) - http://www.bohemiancoding.com/sketch -->
    <title>logo</title>
    <desc>Created with Sketch.</desc>
    <defs></defs>
    <g id="App" stroke="none" stroke-width="1" fill="none" fill-rule="evenodd">
        <g id="login" transform="translate(-629.000000, -381.000000)" fill="#364353">
            <path d="M656.307777,397.113728 C653.38449,395.046037 649.890806,393.833942 646.040623,393.833942 C636.629066,393.833942 629,401.10651 629,410.090269 C629,419.145328 636.629066,426.417895 646.040623,426.417895 C649.819506,426.417895 653.31319,425.205801 656.165178,423.28071 L652.172396,416.150742 C646.82492,421.426918 637.555961,417.077638 637.555961,410.232868 C637.555961,402.532503 647.537916,399.324018 652.172396,404.386295 L656.307777,397.113728 Z M691.249296,439.660156 L681.189899,439.660156 L657.717926,394.301351 L667.699881,394.301351 L677.111439,411.341975 L687.235993,394.301351 L697.503147,394.301351 L682.530214,423.106422 L691.249296,439.660156 Z M723.02051,397.113728 C720.097223,395.046037 716.603539,393.833942 712.753356,393.833942 C703.341798,393.833942 695.712733,401.10651 695.712733,410.090269 C695.712733,419.145328 703.341798,426.417895 712.753356,426.417895 C716.532239,426.417895 720.025923,425.205801 722.87791,423.28071 L718.885128,416.150742 C713.537652,421.426918 704.268694,417.077638 704.268694,410.232868 C704.268694,402.532503 714.250649,399.324018 718.885128,404.386295 L723.02051,397.113728 Z M726.046785,426.552573 L726.046785,381.193768 L735.173144,381.193768 L735.173144,426.552573 L726.046785,426.552573 Z M749.061671,416.338479 C750.460854,417.737661 752.34975,418.577171 754.238647,418.577171 C756.267462,418.577171 758.156358,417.737661 759.6255,416.128601 C760.395051,415.289092 760.954724,414.309664 761.374478,413.190318 L738.847637,413.190318 C738.63776,412.21089 738.567801,411.301421 738.567801,410.321993 C738.567801,401.437183 745.773592,394.301351 754.588442,394.301351 C763.403293,394.301351 770.609084,401.437183 770.609084,410.321993 C770.609084,419.136844 763.403293,426.342635 754.588442,426.342635 C749.761262,426.342635 745.353837,424.173902 742.485512,420.745904 L749.061671,416.338479 Z M746.842525,408.141411 C747.270323,406.858017 747.91202,405.645922 748.767616,404.647727 C750.264909,403.079134 752.19,402.223538 754.257691,402.223538 C756.254082,402.223538 758.250473,403.079134 759.676467,404.647727 C760.603363,405.645922 761.24506,406.858017 761.601558,408.141411 L746.842525,408.141411 Z M800.586638,425.562299 L809,425.562299 L808.999999,381 L800.586639,381 L800.586638,398.539721 C797.663351,395.687734 793.599269,393.905242 789.178689,393.905242 C780.19493,393.905242 772.922363,401.249109 772.922363,410.232868 C772.922363,419.287928 780.19493,426.560495 789.178689,426.560495 C793.599269,426.560495 797.663351,424.778003 800.586638,421.926016 L800.586638,425.562299 Z M781.343647,410.232868 C781.343647,408.022578 782.199243,405.954888 783.696536,404.314995 C785.193829,402.746402 787.190221,401.890806 789.329211,401.890806 C791.468201,401.890806 793.535892,402.746402 795.033185,404.314995 C796.530478,405.954888 797.386075,408.022578 797.386075,410.232868 C797.386075,412.443158 796.530478,414.582149 795.033185,416.150742 C793.535892,417.719335 791.468201,418.574931 789.329211,418.574931 C787.190221,418.574931 785.193829,417.719335 783.696536,416.150742 C782.199243,414.582149 781.343647,412.443158 781.343647,410.232868 L781.343647,410.232868 Z" id="logo"></path>
        </g>
    </g>
</svg>